# Blender 3.3.1
# www.blender.org
mtllib barrle.mtl
o Cylinder
v -1.000000 -1.272320 0.000000
v -1.000000 1.272320 0.000000
v -0.980785 -1.272320 -0.195090
v -0.980785 1.272320 -0.195090
v -0.923880 -1.272320 -0.382683
v -0.923880 1.272320 -0.382683
v -0.831470 -1.272320 -0.555570
v -0.831470 1.272320 -0.555570
v -0.707107 -1.272320 -0.707107
v -0.707107 1.272320 -0.707107
v -0.555570 -1.272320 -0.831470
v -0.555570 1.272320 -0.831470
v -0.382683 -1.272320 -0.923880
v -0.382683 1.272320 -0.923880
v -0.195090 -1.272320 -0.980785
v -0.195090 1.272320 -0.980785
v -0.000000 -1.272320 -1.000000
v -0.000000 1.272320 -1.000000
v 0.195090 -1.272320 -0.980785
v 0.195090 1.272320 -0.980785
v 0.382683 -1.272320 -0.923880
v 0.382683 1.272320 -0.923880
v 0.555570 -1.272320 -0.831470
v 0.555570 1.272320 -0.831470
v 0.707107 -1.272320 -0.707107
v 0.707107 1.272320 -0.707107
v 0.831470 -1.272320 -0.555570
v 0.831470 1.272320 -0.555570
v 0.923880 -1.272320 -0.382683
v 0.923880 1.272320 -0.382683
v 0.980785 -1.272320 -0.195090
v 0.980785 1.272320 -0.195090
v 1.000000 -1.272320 -0.000000
v 1.000000 1.272320 -0.000000
v 0.980785 -1.272320 0.195090
v 0.980785 1.272320 0.195090
v 0.923880 -1.272320 0.382683
v 0.923880 1.272320 0.382683
v 0.831470 -1.272320 0.555570
v 0.831470 1.272320 0.555570
v 0.707107 -1.272320 0.707107
v 0.707107 1.272320 0.707107
v 0.555570 -1.272320 0.831470
v 0.555570 1.272320 0.831470
v 0.382683 -1.272320 0.923880
v 0.382683 1.272320 0.923880
v 0.195090 -1.272320 0.980785
v 0.195090 1.272320 0.980785
v 0.000000 -1.272320 1.000000
v 0.000000 1.272320 1.000000
v -0.195090 -1.272320 0.980785
v -0.195090 1.272320 0.980785
v -0.382683 -1.272320 0.923880
v -0.382683 1.272320 0.923880
v -0.555570 -1.272320 0.831470
v -0.555570 1.272320 0.831470
v -0.707107 -1.272320 0.707107
v -0.707107 1.272320 0.707107
v -0.831470 -1.272320 0.555570
v -0.831470 1.272320 0.555570
v -0.923880 -1.272320 0.382683
v -0.923880 1.272320 0.382683
v -0.980785 -1.272320 0.195090
v -0.980785 1.272320 0.195090
v -0.359640 1.308458 0.207949
v -0.308590 1.308458 0.132124
v -0.285377 1.308458 0.032113
v -0.314722 1.308458 -0.071730
v -0.414775 1.308458 -0.161109
v -0.547101 1.308458 -0.169002
v -0.663206 1.308458 -0.097108
v -0.726134 1.308458 0.029894
v -0.685280 1.308458 0.185193
v -0.587001 1.308458 0.259398
v -0.485768 1.308458 0.251760
v -0.300049 1.308458 -0.019809
v -0.594141 1.231068 0.286015
v -0.547471 1.231068 -0.197958
v -0.681492 1.231068 -0.123513
v -0.753420 1.272320 0.016694
v -0.706780 1.231068 0.203809
v -0.288159 1.231068 -0.088008
v -0.325513 1.231068 -0.129500
v -0.392163 1.231068 -0.183332
v -0.472682 1.231068 -0.194966
v -0.480841 1.231068 0.290461
v -0.351662 1.231068 0.247752
v -0.277355 1.231068 0.152219
v -0.249423 1.231068 0.037805
v -0.699881 1.231068 0.680172
v -0.555038 1.231068 -0.789863
v -0.805968 1.231068 0.542786
v -0.889217 1.231068 0.371591
v -0.948577 1.231068 0.189367
v -0.966328 1.231068 0.004360
v -0.953021 1.231068 -0.175301
v -0.896103 1.231068 -0.372819
v -0.804513 1.231068 -0.543254
v -0.681128 1.231068 -0.686467
v 0.190723 1.231068 0.959270
v -0.010522 1.231068 0.975405
v -0.195075 1.231068 0.950629
v -0.383761 1.231068 0.898299
v -0.543326 1.231068 0.806423
v -0.384253 1.231068 -0.887551
v -0.194102 1.231068 -0.940099
v -0.004011 1.231068 -0.958477
v 0.184984 1.231068 -0.942111
v 0.360343 1.231068 -0.884363
v 0.522140 1.231068 -0.799195
v 0.665539 1.231068 -0.681094
v 0.783140 1.231068 -0.540272
v 0.875734 1.231068 -0.370178
v 0.934102 1.231068 -0.188151
v 0.963287 1.231068 -0.009955
v 0.935906 1.231068 0.180293
v 0.882294 1.231068 0.352864
v 0.795094 1.231068 0.521437
v 0.681332 1.231068 0.659270
v 0.539378 1.231068 0.782420
v 0.375180 1.231068 0.881222
vn -0.9952 -0.0000 -0.0980
vn -0.9569 -0.0000 -0.2903
vn -0.8819 -0.0000 -0.4714
vn -0.7730 -0.0000 -0.6344
vn -0.6344 -0.0000 -0.7730
vn -0.4714 -0.0000 -0.8819
vn -0.2903 -0.0000 -0.9569
vn -0.0980 -0.0000 -0.9952
vn 0.0980 -0.0000 -0.9952
vn 0.2903 -0.0000 -0.9569
vn 0.4714 -0.0000 -0.8819
vn 0.6344 -0.0000 -0.7730
vn 0.7730 -0.0000 -0.6344
vn 0.8819 -0.0000 -0.4714
vn 0.9569 -0.0000 -0.2903
vn 0.9952 -0.0000 -0.0980
vn 0.9952 -0.0000 0.0980
vn 0.9569 -0.0000 0.2903
vn 0.8819 -0.0000 0.4714
vn 0.7730 -0.0000 0.6344
vn 0.6344 -0.0000 0.7730
vn 0.4714 -0.0000 0.8819
vn 0.2903 -0.0000 0.9569
vn 0.0980 -0.0000 0.9952
vn -0.0980 -0.0000 0.9952
vn -0.2903 -0.0000 0.9569
vn -0.4714 -0.0000 0.8819
vn -0.6344 -0.0000 0.7730
vn -0.7730 -0.0000 0.6344
vn -0.8819 -0.0000 0.4714
vn 0.7556 0.6508 0.0744
vn -0.9569 -0.0000 0.2903
vn -0.9952 -0.0000 0.0980
vn -0.0000 -1.0000 -0.0000
vn -0.3313 0.9430 -0.0326
vn -0.0000 1.0000 -0.0000
vn -0.8649 0.4945 -0.0857
vn 0.7730 0.6302 0.0733
vn -0.0195 0.9998 -0.0015
vt 1.000000 0.500000
vt 0.000000 0.500000
vt 0.750000 0.490000
vt 1.000000 1.000000
vt 0.250000 0.490000
vt 0.000000 1.000000
vt 0.968750 0.500000
vt 0.796822 0.485388
vt 0.968750 1.000000
vt 0.296822 0.485388
vt 0.937500 0.500000
vt 0.841844 0.471731
vt 0.937500 1.000000
vt 0.341844 0.471731
vt 0.906250 0.500000
vt 0.883337 0.449553
vt 0.906250 1.000000
vt 0.383337 0.449553
vt 0.875000 0.500000
vt 0.919706 0.419706
vt 0.875000 1.000000
vt 0.419706 0.419706
vt 0.843750 0.500000
vt 0.949553 0.383337
vt 0.843750 1.000000
vt 0.449553 0.383337
vt 0.812500 0.500000
vt 0.971731 0.341844
vt 0.812500 1.000000
vt 0.471731 0.341844
vt 0.781250 0.500000
vt 0.985388 0.296822
vt 0.781250 1.000000
vt 0.485388 0.296822
vt 0.750000 0.500000
vt 0.990000 0.250000
vt 0.750000 1.000000
vt 0.490000 0.250000
vt 0.718750 0.500000
vt 0.985388 0.203178
vt 0.718750 1.000000
vt 0.485388 0.203178
vt 0.687500 0.500000
vt 0.971731 0.158156
vt 0.687500 1.000000
vt 0.471731 0.158156
vt 0.656250 0.500000
vt 0.949553 0.116663
vt 0.656250 1.000000
vt 0.449553 0.116663
vt 0.625000 0.500000
vt 0.919706 0.080294
vt 0.625000 1.000000
vt 0.419706 0.080294
vt 0.593750 0.500000
vt 0.883337 0.050447
vt 0.593750 1.000000
vt 0.383337 0.050447
vt 0.562500 0.500000
vt 0.841844 0.028269
vt 0.562500 1.000000
vt 0.341844 0.028269
vt 0.531250 0.500000
vt 0.796822 0.014612
vt 0.531250 1.000000
vt 0.296822 0.014612
vt 0.500000 0.500000
vt 0.750000 0.010000
vt 0.500000 1.000000
vt 0.250000 0.010000
vt 0.468750 0.500000
vt 0.703178 0.014612
vt 0.468750 1.000000
vt 0.203178 0.014612
vt 0.437500 0.500000
vt 0.658156 0.028269
vt 0.437500 1.000000
vt 0.158156 0.028269
vt 0.406250 0.500000
vt 0.616663 0.050447
vt 0.406250 1.000000
vt 0.116663 0.050447
vt 0.375000 0.500000
vt 0.580294 0.080294
vt 0.375000 1.000000
vt 0.080294 0.080294
vt 0.343750 0.500000
vt 0.550447 0.116663
vt 0.343750 1.000000
vt 0.050447 0.116663
vt 0.312500 0.500000
vt 0.528269 0.158156
vt 0.312500 1.000000
vt 0.028269 0.158156
vt 0.281250 0.500000
vt 0.514612 0.203178
vt 0.281250 1.000000
vt 0.014612 0.203178
vt 0.250000 0.500000
vt 0.510000 0.250000
vt 0.250000 1.000000
vt 0.010000 0.250000
vt 0.218750 0.500000
vt 0.514612 0.296822
vt 0.218750 1.000000
vt 0.014612 0.296822
vt 0.187500 0.500000
vt 0.528269 0.341844
vt 0.187500 1.000000
vt 0.028269 0.341844
vt 0.156250 0.500000
vt 0.550447 0.383337
vt 0.156250 1.000000
vt 0.050447 0.383337
vt 0.125000 0.500000
vt 0.580294 0.419706
vt 0.125000 1.000000
vt 0.080294 0.419706
vt 0.093750 0.500000
vt 0.616663 0.449553
vt 0.093750 1.000000
vt 0.116663 0.449553
vt 0.062500 0.500000
vt 0.658156 0.471731
vt 0.158156 0.471731
vt 0.062500 1.000000
vt 0.031250 0.500000
vt 0.703178 0.485388
vt 0.203178 0.485388
vt 0.031250 1.000000
vt 0.200092 0.336314
vt 0.218290 0.324062
vt 0.242293 0.318491
vt 0.267215 0.325533
vt 0.288666 0.349546
vt 0.290561 0.381304
vt 0.273306 0.409169
vt 0.242826 0.424272
vt 0.205554 0.414467
vt 0.187745 0.390880
vt 0.189578 0.366584
vt 0.254754 0.322012
vt 0.181356 0.392594
vt 0.297510 0.381393
vt 0.279643 0.413558
vt 0.245993 0.430821
vt 0.201086 0.419627
vt 0.271122 0.319158
vt 0.281080 0.328123
vt 0.294000 0.344119
vt 0.296792 0.363444
vt 0.180289 0.365402
vt 0.190539 0.334399
vt 0.213468 0.316565
vt 0.240927 0.309862
vt 0.086759 0.417971
vt 0.439567 0.383209
vt 0.119731 0.443432
vt 0.160818 0.463412
vt 0.204552 0.477658
vt 0.248954 0.481919
vt 0.292072 0.478725
vt 0.339477 0.465065
vt 0.380381 0.443083
vt 0.414752 0.413471
vt 0.019775 0.204227
vt 0.015903 0.252525
vt 0.021849 0.296818
vt 0.034408 0.342103
vt 0.056459 0.380398
vt 0.463012 0.342221
vt 0.475624 0.296585
vt 0.480035 0.250963
vt 0.476107 0.205604
vt 0.462247 0.163518
vt 0.441807 0.124686
vt 0.413462 0.090271
vt 0.379665 0.062046
vt 0.338843 0.039824
vt 0.295156 0.025816
vt 0.252389 0.018811
vt 0.206730 0.025383
vt 0.165313 0.038250
vt 0.124855 0.059178
vt 0.091775 0.086480
vt 0.062219 0.120549
vt 0.038507 0.159957
s 0
usemtl Material.001
f 1/1/1 2/4/1 4/9/1 3/7/1
f 3/7/2 4/9/2 6/13/2 5/11/2
f 5/11/3 6/13/3 8/17/3 7/15/3
f 7/15/4 8/17/4 10/21/4 9/19/4
f 9/19/5 10/21/5 12/25/5 11/23/5
f 11/23/6 12/25/6 14/29/6 13/27/6
f 13/27/7 14/29/7 16/33/7 15/31/7
f 15/31/8 16/33/8 18/37/8 17/35/8
f 17/35/9 18/37/9 20/41/9 19/39/9
f 19/39/10 20/41/10 22/45/10 21/43/10
f 21/43/11 22/45/11 24/49/11 23/47/11
f 23/47/12 24/49/12 26/53/12 25/51/12
f 25/51/13 26/53/13 28/57/13 27/55/13
f 27/55/14 28/57/14 30/61/14 29/59/14
f 29/59/15 30/61/15 32/65/15 31/63/15
f 31/63/16 32/65/16 34/69/16 33/67/16
f 33/67/17 34/69/17 36/73/17 35/71/17
f 35/71/18 36/73/18 38/77/18 37/75/18
f 37/75/19 38/77/19 40/81/19 39/79/19
f 39/79/20 40/81/20 42/85/20 41/83/20
f 41/83/21 42/85/21 44/89/21 43/87/21
f 43/87/22 44/89/22 46/93/22 45/91/22
f 45/91/23 46/93/23 48/97/23 47/95/23
f 47/95/24 48/97/24 50/101/24 49/99/24
f 49/99/25 50/101/25 52/105/25 51/103/25
f 51/103/26 52/105/26 54/109/26 53/107/26
f 53/107/27 54/109/27 56/113/27 55/111/27
f 55/111/28 56/113/28 58/117/28 57/115/28
f 57/115/29 58/117/29 60/121/29 59/119/29
f 59/119/30 60/121/30 62/126/30 61/123/30
f 4/10/31 2/5/31 64/129/31 62/125/31 60/122/31 58/118/31 90/156/31 92/158/31 93/159/31 94/160/31 95/161/31 96/162/31 97/163/31 98/164/31 99/165/31 91/157/31 12/26/31 10/22/31 8/18/31 6/14/31
f 61/123/32 62/126/32 64/130/32 63/127/32
f 63/127/33 64/130/33 2/6/33 1/2/33
f 1/3/34 3/8/34 5/12/34 7/16/34 9/20/34 11/24/34 13/28/34 15/32/34 17/36/34 19/40/34 21/44/34 23/48/34 25/52/34 27/56/34 29/60/34 31/64/34 33/68/34 35/72/34 37/76/34 39/80/34 41/84/34 43/88/34 45/92/34 47/96/34 49/100/34 51/104/34 53/108/34 55/112/34 57/116/34 59/120/34 61/124/34 63/128/34
f 12/26/35 91/157/35 105/171/35 106/172/35 107/173/35 108/174/35 109/175/35 110/176/35 111/177/35 112/178/35 113/179/35 114/180/35 115/181/35 116/182/35 117/183/35 118/184/35 119/185/35 120/186/35 121/187/35 100/166/35 101/167/35 102/168/35 103/169/35 104/170/35 90/156/35 58/118/35 56/114/35 54/110/35 52/106/35 50/102/35 48/98/35 46/94/35 44/90/35 42/86/35 40/82/35 38/78/35 36/74/35 34/70/35 32/66/35 30/62/35 28/58/35 26/54/35 24/50/35 22/46/35 20/42/35 18/38/35 16/34/35 14/30/35
f 75/141/36 65/131/36 66/132/36 67/133/36 76/142/36 68/134/36 69/135/36 70/136/36 71/137/36 72/138/36 73/139/36 74/140/36
f 78/144/37 79/145/37 80/146/37 81/147/37 77/143/37 74/140/37 73/139/37 72/138/37 71/137/37 70/136/37
f 77/143/38 86/152/38 87/153/38 88/154/38 89/155/38 82/148/38 83/149/38 84/150/38 85/151/38 78/144/38 70/136/38 69/135/38 68/134/38 76/142/38 67/133/38 66/132/38 65/131/38 75/141/38 74/140/38
f 91/157/39 99/165/39 98/164/39 97/163/39 96/162/39 95/161/39 94/160/39 93/159/39 92/158/39 90/156/39 77/143/39 81/147/39 80/146/39 79/145/39 78/144/39
f 90/156/36 104/170/36 103/169/36 102/168/36 101/167/36 100/166/36 121/187/36 120/186/36 119/185/36 118/184/36 117/183/36 116/182/36 115/181/36 114/180/36 113/179/36 112/178/36 111/177/36 110/176/36 109/175/36 108/174/36 107/173/36 106/172/36 105/171/36 91/157/36 78/144/36 85/151/36 84/150/36 83/149/36 82/148/36 89/155/36 88/154/36 87/153/36 86/152/36 77/143/36
